<svg viewBox="0 0 300 100" xmlns="http://www.w3.org/2000/svg">
  <!-- Flame Icon -->
  <g transform="translate(10, 20)">
    <circle cx="40" cy="40" r="38" fill="none" stroke="#dc2626" strokeWidth="2"/>
    <path d="M 40 10 C 45 20 50 30 50 40 C 50 52 45 58 40 58 C 35 58 30 52 30 40 C 30 30 35 20 40 10 Z" 
          fill="#dc2626"/>
    <path d="M 40 18 C 43 24 46 32 46 40 C 46 50 43 54 40 54 C 37 54 34 50 34 40 C 34 32 37 24 40 18 Z" 
          fill="#ea580c"/>
    <ellipse cx="39" cy="32" rx="2.5" ry="6" fill="#f59e0b" opacity="0.8"/>
  </g>
  
  <!-- Text: FirePro -->
  <text x="100" y="55" fontFamily="Arial, sans-serif" fontSize="48" fontWeight="bold" fill="#0f2744">
    Fire<tspan fill="#dc2626">Pro</tspan>
  </text>
  
  <!-- Tagline -->
  <text x="100" y="75" fontFamily="Arial, sans-serif" fontSize="14" fill="#666" fontWeight="500">
    Fire Safety Experts
  </text>
</svg>
